solid Clinical_Atlas_FEMUR_LPS
facet normal 0.0 0.0 1.0
 outer loop
  vertex -25.0 -20.0 30.0
  vertex 25.0 -20.0 30.0
  vertex 25.0 20.0 30.0
 endloop
endfacet
facet normal 0.0 0.0 1.0
 outer loop
  vertex -25.0 -20.0 30.0
  vertex 25.0 20.0 30.0
  vertex -25.0 20.0 30.0
 endloop
endfacet
facet normal 0.0 0.0 -1.0
 outer loop
  vertex -25.0 -20.0 0.0
  vertex 25.0 20.0 0.0
  vertex 25.0 -20.0 0.0
 endloop
endfacet
facet normal 0.0 0.0 -1.0
 outer loop
  vertex -25.0 -20.0 0.0
  vertex -25.0 20.0 0.0
  vertex 25.0 20.0 0.0
 endloop
endfacet
facet normal 0.0 -1.0 0.0
 outer loop
  vertex -25.0 -20.0 0.0
  vertex 25.0 -20.0 0.0
  vertex 25.0 -20.0 30.0
 endloop
endfacet
facet normal 0.0 -1.0 0.0
 outer loop
  vertex -25.0 -20.0 0.0
  vertex 25.0 -20.0 30.0
  vertex -25.0 -20.0 30.0
 endloop
endfacet
facet normal 0.0 1.0 0.0
 outer loop
  vertex -25.0 20.0 0.0
  vertex 25.0 20.0 30.0
  vertex 25.0 20.0 0.0
 endloop
endfacet
facet normal 0.0 1.0 0.0
 outer loop
  vertex -25.0 20.0 0.0
  vertex -25.0 20.0 30.0
  vertex 25.0 20.0 30.0
 endloop
endfacet
facet normal 1.0 0.0 0.0
 outer loop
  vertex 25.0 -20.0 0.0
  vertex 25.0 20.0 0.0
  vertex 25.0 20.0 30.0
 endloop
endfacet
facet normal 1.0 0.0 0.0
 outer loop
  vertex 25.0 -20.0 0.0
  vertex 25.0 20.0 30.0
  vertex 25.0 -20.0 30.0
 endloop
endfacet
facet normal -1.0 0.0 0.0
 outer loop
  vertex -25.0 -20.0 0.0
  vertex -25.0 20.0 30.0
  vertex -25.0 20.0 0.0
 endloop
endfacet
facet normal -1.0 0.0 0.0
 outer loop
  vertex -25.0 -20.0 0.0
  vertex -25.0 -20.0 30.0
  vertex -25.0 20.0 30.0
 endloop
endfacet
endsolid Clinical_Atlas_FEMUR_LPS
